<?xml version="1.0" encoding="UTF-8" standalone="no"?>
<!-- Created with Inkscape (http://www.inkscape.org/) -->

<svg
   xmlns:dc="http://purl.org/dc/elements/1.1/"
   xmlns:cc="http://creativecommons.org/ns#"
   xmlns:rdf="http://www.w3.org/1999/02/22-rdf-syntax-ns#"
   xmlns:svg="http://www.w3.org/2000/svg"
   xmlns="http://www.w3.org/2000/svg"
   xmlns:sodipodi="http://sodipodi.sourceforge.net/DTD/sodipodi-0.dtd"
   xmlns:inkscape="http://www.inkscape.org/namespaces/inkscape"
   width="100mm"
   height="100mm"
   viewBox="0 0 100 100"
   version="1.1"
   id="svg8"
   inkscape:version="0.92.4 5da689c313, 2019-01-14"
   sodipodi:docname="lushui_logo.svg">
  <defs
     id="defs2" />
  <sodipodi:namedview
     id="base"
     pagecolor="#ffffff"
     bordercolor="#666666"
     borderopacity="1.0"
     inkscape:pageopacity="0.0"
     inkscape:pageshadow="2"
     inkscape:zoom="2"
     inkscape:cx="267.47672"
     inkscape:cy="189.56308"
     inkscape:document-units="mm"
     inkscape:current-layer="layer4"
     showgrid="false"
     inkscape:pagecheckerboard="true"
     inkscape:window-width="1920"
     inkscape:window-height="1080"
     inkscape:window-x="0"
     inkscape:window-y="0"
     inkscape:window-maximized="0"
     showguides="true"
     inkscape:guide-bbox="true"
     inkscape:object-paths="false" />
  <metadata
     id="metadata5">
    <rdf:RDF>
      <cc:Work
         rdf:about="">
        <dc:format>image/svg+xml</dc:format>
        <dc:type
           rdf:resource="http://purl.org/dc/dcmitype/StillImage" />
        <dc:title />
      </cc:Work>
    </rdf:RDF>
  </metadata>
  <g
     inkscape:groupmode="layer"
     id="layer4"
     inkscape:label="main"
     style="display:inline">
    <path
       style="fill:#4e623b;fill-opacity:1;stroke:none;stroke-width:0.26458332px;stroke-linecap:butt;stroke-linejoin:miter;stroke-opacity:1"
       d="m 92.415179,27.050595 1.409787,0.218686 0.795126,1.028988 -1.449935,3.320823 -11.599497,18.147601 -14.961807,24.337213 -13.569217,20.096345 -4.490127,2.899873 -5.519116,0.467723 -15.341271,-12.722029 -2.03397,-1.382276 -14.336288,-1.424054 -1.30962,-2.525697 43.357798,-6.92228 z"
       id="path5061"
       inkscape:connector-curvature="0" />
    <g
       id="g910">
      <path
         inkscape:connector-curvature="0"
         id="path4649-6"
         d="m 55.373498,2.5766368 7.559524,3.590774 8.457218,9.7801342 9.780133,0.803199 6.590961,0.992188 5.6224,2.031622 1.39378,1.771763 -0.0236,2.14974 L 48.64307,93.050992 43.986996,95.22805 41.671889,95.1808 25.655152,83.463542 6.6618478,80.109004 6.0948828,77.132442 46.018618,13.443453 51.499274,5.8839288 Z"
         style="display:inline;fill:#92cb56;fill-opacity:1;stroke:none;stroke-width:0.26458332px;stroke-linecap:butt;stroke-linejoin:miter;stroke-opacity:1" />
      <path
         sodipodi:nodetypes="cccccccccccccccc"
         inkscape:connector-curvature="0"
         id="path4684"
         d="m 32.364211,84.313987 11.197545,5.291666 1.606399,-0.472469 -1.700895,-0.425222 3.68527,-8.126489 -2.126117,0.377975 5.10268,-6.520087 -0.0945,3.307292 2.362351,-1.417413 17.670388,-24.662945 0.614211,2.598587 -8.527208,18.463929 -13.511289,20.322178 -4.656074,2.17706 -4.512088,-5.457031 z"
         style="fill:#deeeca;fill-opacity:1;stroke:none;stroke-width:0.26458332px;stroke-linecap:butt;stroke-linejoin:miter;stroke-opacity:1" />
      <path
         sodipodi:nodetypes="ccccccccccccccccccccc"
         inkscape:connector-curvature="0"
         id="path4680"
         d="m 89.320499,20.12891 -0.779577,2.669456 -6.142114,6.142114 -1.41741,0.755951 -12.284225,15.024555 -3.685268,0.09449 -10.677829,12.284226 10.779461,-17.36898 1.403167,-5.813113 6.046973,-4.009043 -5.479026,1.069078 1.00226,-3.107008 3.441097,-2.204973 -2.238383,-2.204974 6.247423,-0.701582 8.452401,2.071339 2.372016,-1.102487 -0.200451,-1.336348 -1.904296,-2.505651 -10.590554,-3.808591 z"
         style="fill:#deeeca;fill-opacity:1;stroke:none;stroke-width:0.26458332px;stroke-linecap:butt;stroke-linejoin:miter;stroke-opacity:1" />
      <path
         inkscape:connector-curvature="0"
         id="path4686"
         d="m 22.918362,50.087416 2.639286,5.144939 3.708364,3.073598 -3.407685,0.668174 -0.501131,1.30294 2.07134,1.369756 -3.040192,0.434314 -0.634765,0.935442 0.300678,0.968851 h -6.247425 l -1.971113,1.436574 0.501131,0.935445 7.416729,0.06682 0.868626,2.171562 3.842,3.006783 -15.033912,1.403165 -0.935443,1.035669 0.300678,1.80407 5.746295,0.935445 -0.06682,0.801806 9.95579,1.503392 -1.00226,0.868627 -17.8402417,0.668173 -2.9264641,-0.513958 -0.5669643,-2.97656 z"
         style="fill:#deeeca;fill-opacity:1;stroke:none;stroke-width:0.26458332px;stroke-linecap:butt;stroke-linejoin:miter;stroke-opacity:1" />
      <path
         sodipodi:nodetypes="ccccccccccc"
         inkscape:connector-curvature="0"
         id="path4698"
         d="m 92.609699,26.921153 -2.415131,1.405112 -10.441593,13.985118 -0.425223,-1.039434 11.481025,-17.056175 0.07087,-1.937128 -3.1183,-4.535714 5.622396,2.031622 1.393788,1.771763 -0.02363,2.14974 z"
         style="fill:#deeeca;fill-opacity:1;stroke:none;stroke-width:0.26458332px;stroke-linecap:butt;stroke-linejoin:miter;stroke-opacity:1" />
      <path
         inkscape:connector-curvature="0"
         id="path4649"
         d="m 39.807906,23.351029 0.02119,0.01447 11.056173,9.118307 -0.803569,-5.953125 4.110861,5.433777 0.377753,-3.071133 0.945163,-1.133779 2.125967,0.04702 1.700673,-1.984373 -0.613918,-2.031401 -4.110861,0.04703 -1.511535,-4.346505 3.165181,-2.221053 -2.551263,-3.779614 -1.606105,4.016292 -4.063318,4.251937 -2.976562,0.378271 -0.04754,-1.842781 6.72362,-9.829891 0.76843,-0.116789 1.26969,-1.5533934 0.701765,1.4200684 3.407545,0.166915 -5.957776,-4.8730877 -0.440283,0.3756877 -5.480804,7.559745 z"
         style="display:inline;fill:#deeeca;fill-opacity:1;stroke:none;stroke-width:0.26458332px;stroke-linecap:butt;stroke-linejoin:miter;stroke-opacity:1" />
      <path
         inkscape:connector-curvature="0"
         id="path4696"
         d="m 29.199197,55.83371 3.507912,0.968852 -3.441097,0.200453 2.33861,1.169305 5.34539,0.835216 5.512435,-1.403165 4.944485,-2.00452 -3.775183,3.107007 -7.049233,1.369756 -5.913339,-0.267269 4.977897,2.77292 7.717406,-2.405424 -1.23612,2.873147 -2.772923,1.77066 -3.107007,6.38106 0.133635,1.069078 -1.937705,2.171565 0.200451,2.004523 3.474506,-1.937705 6.180605,-9.354434 1.770664,-1.570209 5.946745,-9.421249 3.006784,-7.817636 5.211754,-8.886711 2.00452,-0.801807 1.436574,-1.804069 3.040192,-7.851045 2.305201,-4.576989 2.367894,-6.477475 -5.622393,6.283854 -1.89044,0.694751 -10.368063,16.685755 z"
         style="display:inline;fill:#6d9445;fill-opacity:1;stroke:none;stroke-width:0.26458332px;stroke-linecap:butt;stroke-linejoin:miter;stroke-opacity:1" />
      <path
         sodipodi:nodetypes="cccccccc"
         inkscape:connector-curvature="0"
         id="path4700"
         d="m 92.609699,26.921153 -2.415131,1.405112 -10.441593,13.985118 -2.111179,3.399494 -4.610399,8.92012 -4.81085,4.810852 -6.066212,13.286962 z"
         style="display:inline;fill:#6d9445;fill-opacity:1;stroke:none;stroke-width:0.26458332px;stroke-linecap:butt;stroke-linejoin:miter;stroke-opacity:1" />
      <path
         inkscape:connector-curvature="0"
         id="path5063"
         d="M 43.986971,95.228049 41.671888,95.1808 25.655152,83.463542 17.69401,81.346875 l 9.260417,0.56224 2.480468,0.992187 2.929316,1.412685 7.110672,5.457031 z"
         style="display:inline;fill:#6d9445;fill-opacity:1;stroke:none;stroke-width:0.26458332px;stroke-linecap:butt;stroke-linejoin:miter;stroke-opacity:1" />
    </g>
    <g
       style="display:inline"
       id="g4754">
      <path
         sodipodi:nodetypes="ssssss"
         inkscape:connector-curvature="0"
         id="path4675"
         d="m 53.509355,39.611905 c 10e-7,4.741226 -2.0489,9.033601 -5.361525,12.140669 -3.312624,3.107068 -7.888973,5.02883 -12.943868,5.02883 -10.10979,0 -17.762053,-7.16733 -17.762052,-16.649782 0,-9.482452 8.195604,-17.169498 18.305393,-17.169498 10.109789,0 17.762052,7.167329 17.762052,16.649781 z"
         style="fill:#f4faee;fill-opacity:1;stroke:none;stroke-width:0.2;stroke-miterlimit:4;stroke-dasharray:none" />
      <path
         inkscape:connector-curvature="0"
         transform="scale(0.26458333)"
         id="path4747"
         d="m 66.943359,140.96094 c -0.620491,3.49389 -1.021484,7.05774 -1.021484,10.71679 0,9.96655 2.243839,19.25388 6.294922,27.47266 l 3.675781,2.01758 1.785156,-5.26953 2.322266,2.14453 -0.177734,3.39258 5,0.625 3.927734,7.5 8.302734,2.41015 2.232422,2.67774 8.662114,-1.42774 5.98046,-4.375 -6.42773,-5.08984 0.89258,-4.55274 2.85742,0.98243 3.66016,-1.07227 0.80468,-1.16016 0.53516,-1.96484 2.76758,-0.17773 0.71484,2.05273 3.66016,-2.41016 1.875,0.80274 4.46484,-0.625 6.51758,-0.89258 12.67773,-3.03516 5.98243,-4.46484 0.80468,-3.21484 5.35743,-0.0879 5.625,-3.57227 1.60546,0.80469 2.58985,0.80273 -1.42774,2.32227 2.23243,3.92773 2.76757,-0.0898 1.16016,1.51758 7.14258,0.35742 6.69726,-1.25 4.55274,-3.92774 3.125,-8.21484 1.875,-13.66016 0.80469,-10.5371 -3.21485,-8.66016 -0.89258,5.26758 2.14258,6.875 -0.53515,2.23242 -6.07227,-11.69531 -16.69727,-12.23243 -2.76757,-0.98242 -2.5,0.53516 -0.625,-2.14258 -6.25,-0.44531 -0.53516,-1.96485 -2.41016,0.89258 -2.38672,-0.59179 -13.25781,-1.45118 7.87696,-1.25976 -6.74024,-2.02344 -0.0625,-1.38867 5.64063,-0.0703 1.33984,-3.839847 10.71484,1.964847 5.08789,-0.80469 -8.03515,-4.732422 7.91797,-1.759766 c -3.59538,-1.781825 -7.46559,-3.16012 -11.45703,-4.31836 l -9.85352,-0.08203 -7.14258,-0.445312 -13.75,2.5 -3.03515,-0.447266 -18.92969,5.892578 -13.750002,6.785158 -13.927734,17.5 z"
         style="display:inline;fill:#deeeca;fill-opacity:1;stroke:none;stroke-width:0.75590551;stroke-miterlimit:4;stroke-dasharray:none" />
      <path
         style="display:inline;fill:#92cb56;fill-opacity:1;stroke:none;stroke-width:0.26458332px;stroke-linecap:butt;stroke-linejoin:miter;stroke-opacity:1"
         d="m 17.62314,37.492188 c 2.409598,-5.338913 2.409598,-5.338913 2.409598,-5.338913 l 3.685268,-4.630208 3.638021,-1.795388 3.590774,-1.228423 1.41741,-0.330729 1.937129,0.330729 2.130837,0.264372 1.469983,0.618061 0.484426,0.751695 -0.23386,0.334088 -0.501132,0.167042 -0.05011,0.384201 0.734992,0.334087 0.01669,0.367496 -0.935443,0.634764 0.634765,0.233863 3.507912,0.384198 3.157122,1.753958 3.157122,2.823032 0.742532,0.729277 1.27567,2.196986 0.448847,1.653646 -0.4016,2.244235 -0.614212,1.748139 -2.102493,0.543341 -0.850445,0.04725 0.188987,-1.582774 -1.228421,0.850445 -0.803201,0.661458 -0.425222,-0.212611 -1.488282,0.944941 -1.889881,0.188989 -0.685081,-0.330729 -0.874072,0.236233 -0.874069,-0.165365 -0.779577,-0.566962 -0.68508,-0.779576 -0.425222,0.874069 -0.472472,0.803199 -2.574962,2.4096 -1.157552,0.212611 -0.708705,0.259858 -1.748142,-0.14174 1.393788,-1.181177 -0.73233,0.04725 -1.204798,1.086683 -0.968563,-0.141742 -0.377976,-0.685081 0.04725,-0.661458 1.204798,-2.055246 -0.566965,-0.259858 -2.126115,-0.0945 -0.637835,-0.590587 -0.850446,-0.09449 -0.425223,0.472469 0.590588,0.54334 -0.8032,0.897694 1.086681,1.937129 0.259859,0.708705 -0.259859,0.803198 -0.401599,0.188989 H 23.269151 L 21.639129,46.847098 19.442142,45.358817 18.237343,43.6343 17.41052,40.823102 Z"
         id="path4704"
         inkscape:connector-curvature="0" />
    </g>
  </g>
</svg>
